<svg version="1.1" xmlns="http://www.w3.org/2000/svg" viewBox="0 0 120.41473565773117 131.92482200313356" width="240.82947131546234" height="263.8496440062671">
  <!-- svg-source:excalidraw -->
  
  <defs>
    <style>
      @font-face {
        font-family: "Virgil";
        src: url("https://excalidraw.com/Virgil.woff2");
      }
      @font-face {
        font-family: "Cascadia";
        src: url("https://excalidraw.com/Cascadia.woff2");
      }
    </style>
  </defs>
  <g stroke-linecap="round"><g transform="translate(10.264581424007247 110.62819952103308) rotate(0 1.4639574672979734 -48.94386168211233)"><path d="M0.78 -0.54 C1.36 -17.05, 2.95 -83.23, 3.19 -99.68 M-0.26 1.79 C0.23 -14.46, 2.33 -80.96, 2.6 -98.15" stroke="#000000" stroke-width="1" fill="none"></path></g></g><g stroke-linecap="round"><g transform="translate(12.510675174007247 11.792262021033082) rotate(0 48.70700849369172 0.37676765716170735)"><path d="M-0.49 -0.49 C15.79 -0.12, 81.62 2.21, 97.9 2.55 M1.45 -1.79 C17.66 -1.77, 81.69 0.15, 97.56 0.91" stroke="#000000" stroke-width="1" fill="none"></path></g></g><g stroke-linecap="round"><g transform="translate(109.83489392400725 15.167262021033082) rotate(0 -2.0754302670853235 53.60096535057758)"><path d="M0.49 0.98 C0.01 18.63, -2.87 88.07, -3.66 105.51 M-0.72 0.44 C-1.29 18.29, -3.87 89.05, -4.64 106.76" stroke="#000000" stroke-width="1" fill="none"></path></g></g><g stroke-linecap="round"><g transform="translate(100.74895642400725 117.27663702103308) rotate(0 -17.922606094167577 -25.11855571085124)"><path d="M1.2 -0.91 C-4.69 -9.58, -30.04 -42.96, -36.19 -51.46 M0.37 1.22 C-5.59 -7.33, -30.95 -41.48, -37.04 -50.21" stroke="#000000" stroke-width="1" fill="none"></path></g></g><g stroke-linecap="round"><g transform="translate(64.02630017400725 67.02663702103308) rotate(0 -26.01992607191204 24.638407524535438)"><path d="M0.9 0.74 C-7.92 8.63, -44.27 39.84, -52.94 47.71 M-0.09 0.08 C-8.53 8.14, -42.1 40.99, -50.64 49.19" stroke="#000000" stroke-width="1" fill="none"></path></g></g></svg>